<?xml version="1.0" encoding="utf-8"?>
<!-- Generator: Adobe Illustrator 23.0.2, SVG Export Plug-In . SVG Version: 6.00 Build 0)  -->
<svg version="1.1" xmlns="http://www.w3.org/2000/svg" xmlns:xlink="http://www.w3.org/1999/xlink" x="0px" y="0px"
	 viewBox="0 0 1666.45 500" style="enable-background:new 0 0 1666.45 500;" xml:space="preserve">
<style type="text/css">
	.st0{fill:none;}
	.st1{fill:#97B06B;}
	.st2{fill:#F2EFE8;}
	.st3{fill:#3E2508;}
	.st4{fill:#A0A761;}
	.st5{fill:none;stroke:#94994F;stroke-width:0.5;stroke-miterlimit:10;}
	.st6{fill:none;stroke:#94994F;stroke-width:0.25;stroke-miterlimit:10;}
	.st7{fill:#BDAF5E;}
	.st8{fill:none;stroke:#D1D3D4;stroke-width:0.5;stroke-miterlimit:10;}
	.st9{fill:none;stroke:#D1D3D4;stroke-width:0.25;stroke-miterlimit:10;}
	.st10{fill:#FBBE68;}
	.st11{fill:#FA6564;}
	.st12{opacity:0;fill:none;}
	.st13{fill:#D24B43;}
	.st14{font-family:'BellMT';}
	.st15{font-size:232px;}
	.st16{letter-spacing:-5;}
	.st17{fill:#845E40;}
	.st18{fill:#996E52;}
	.st19{fill:url(#SVGID_1_);}
	.st20{fill:#EFECE3;}
	.st21{fill:#EFE1BF;}
	.st22{fill:#889B5D;}
	.st23{enable-background:new    ;}
	.st24{fill:#F9CD98;}
	.st25{fill:#EDAB5D;}
	.st26{fill:#E25252;}
	.st27{fill:#F9F8F7;}
	.st28{fill:url(#SVGID_2_);}
	.st29{fill:#E4E7E7;}
	.st30{fill:#220F00;}
	.st31{fill:url(#SVGID_3_);}
	.st32{fill:url(#SVGID_4_);}
	.st33{fill:url(#SVGID_5_);}
	.st34{fill:url(#SVGID_6_);}
	.st35{fill:url(#SVGID_7_);}
	.st36{fill:url(#SVGID_8_);}
	.st37{fill:url(#SVGID_9_);}
	.st38{fill:url(#SVGID_10_);}
	.st39{display:none;}
	.st40{display:inline;}
	.st41{fill:#D8D0BB;}
</style>
<pattern  x="-670" y="-150" width="24.13" height="24.13" patternUnits="userSpaceOnUse" id="New_Pattern" viewBox="0 -48.04 24.13 24.13" style="overflow:visible;">
	<g>
		<rect y="-48.04" class="st0" width="24.13" height="24.13"/>
		<g>
			<rect y="-24.13" class="st1" width="24.13" height="24.13"/>
		</g>
		<g>
			<rect y="-48.25" class="st1" width="24.13" height="24.13"/>
			<rect x="2.13" y="-47.5" class="st2" width="5.45" height="1.34"/>
			<rect x="3.59" y="-28.32" class="st3" width="5.45" height="1.34"/>
			<rect x="1.71" y="-33.38" class="st3" width="1.7" height="1.34"/>
			<rect x="20.19" y="-46.33" class="st2" width="1.7" height="1.34"/>
			<rect x="0" y="-38.9" class="st2" width="1.7" height="1.34"/>
			<rect x="16.35" y="-31" class="st2" width="3.58" height="1.34"/>
			<circle class="st2" cx="18.33" cy="-37.83" r="0.75"/>
			<circle class="st3" cx="5.6" cy="-38.23" r="0.75"/>
			<path class="st2" d="M11.44-32.42c0,0.41-0.34,0.75-0.75,0.75S9.94-32,9.94-32.42s0.34-0.75,0.75-0.75S11.44-32.83,11.44-32.42z"
				/>
			<circle class="st2" cx="14.08" cy="-24.46" r="0.75"/>
		</g>
		<g>
			<circle class="st2" cx="14.08" cy="-48.58" r="0.75"/>
		</g>
	</g>
</pattern>
<pattern  x="-670" y="-150" width="11.84" height="11.84" patternUnits="userSpaceOnUse" id="New_Pattern_2" viewBox="0 -11.84 11.84 11.84" style="overflow:visible;">
	<g>
		<rect x="0" y="-11.84" class="st0" width="11.84" height="11.84"/>
		<rect x="0" y="-11.84" class="st4" width="11.84" height="11.84"/>
		<path class="st5" d="M4.05-9.47c0,0.63-0.51,1.14-1.14,1.14S1.78-8.84,1.78-9.47"/>
		<path class="st5" d="M10.66-2.65c0,0.63-0.51,1.14-1.14,1.14c-0.63,0-1.14-0.51-1.14-1.14c0,0.63-0.51,1.14-1.14,1.14
			c-0.63,0-1.14-0.51-1.14-1.14"/>
		<path class="st6" d="M10.8-8.63c0,0.33-0.27,0.6-0.6,0.6c-0.33,0-0.6-0.27-0.6-0.6c0,0.33-0.27,0.6-0.6,0.6
			c-0.33,0-0.6-0.27-0.6-0.6"/>
		<path class="st6" d="M3.66-3.7c0,0.33-0.27,0.6-0.6,0.6c-0.33,0-0.6-0.27-0.6-0.6c0,0.33-0.27,0.6-0.6,0.6
			c-0.33,0-0.6-0.27-0.6-0.6"/>
	</g>
</pattern>
<pattern  x="-670" y="-150" width="11.84" height="11.84" patternUnits="userSpaceOnUse" id="New_Pattern_3" viewBox="0 -12.18 11.84 11.84" style="overflow:visible;">
	<g>
		<rect x="0" y="-12.18" class="st0" width="11.84" height="11.84"/>
		<g>
			<rect x="0" y="-12.18" class="st7" width="11.84" height="11.84"/>
			<path class="st8" d="M4.05-9.81c0,0.63-0.51,1.14-1.14,1.14S1.78-9.19,1.78-9.81"/>
			<path class="st8" d="M10.66-2.99c0,0.63-0.51,1.14-1.14,1.14c-0.63,0-1.14-0.51-1.14-1.14c0,0.63-0.51,1.14-1.14,1.14
				c-0.63,0-1.14-0.51-1.14-1.14"/>
			<path class="st9" d="M10.8-8.98c0,0.33-0.27,0.6-0.6,0.6c-0.33,0-0.6-0.27-0.6-0.6c0,0.33-0.27,0.6-0.6,0.6
				c-0.33,0-0.6-0.27-0.6-0.6"/>
			<path class="st9" d="M3.66-4.04c0,0.33-0.27,0.6-0.6,0.6c-0.33,0-0.6-0.27-0.6-0.6c0,0.33-0.27,0.6-0.6,0.6
				c-0.33,0-0.6-0.27-0.6-0.6"/>
			<path class="st10" d="M6.41-8.06c0,0.34-0.28,0.62-0.62,0.62c-0.34,0-0.62-0.28-0.62-0.62s0.28-0.62,0.62-0.62
				C6.13-8.68,6.41-8.4,6.41-8.06z"/>
			<path class="st10" d="M9.65-5.83c0,0.24-0.19,0.43-0.43,0.43c-0.24,0-0.43-0.19-0.43-0.43s0.19-0.43,0.43-0.43
				C9.46-6.26,9.65-6.07,9.65-5.83z"/>
			<path class="st10" d="M1.96-0.48C1.96-0.21,2.18,0,2.44,0C2.7,0,2.91-0.21,2.91-0.48c0-0.26-0.21-0.48-0.48-0.48
				C2.18-0.95,1.96-0.74,1.96-0.48z"/>
		</g>
		<g>
			<path class="st10" d="M1.96-12.31c0,0.26,0.21,0.48,0.48,0.48c0.26,0,0.48-0.21,0.48-0.48c0-0.26-0.21-0.48-0.48-0.48
				C2.18-12.79,1.96-12.57,1.96-12.31z"/>
		</g>
	</g>
</pattern>
<pattern  x="-670" y="-150" width="11.84" height="11.84" patternUnits="userSpaceOnUse" id="New_Pattern_4" viewBox="0 -12.62 11.84 11.84" style="overflow:visible;">
	<g>
		<rect x="0" y="-12.62" class="st0" width="11.84" height="11.84"/>
		<g>
			<rect x="0" y="-12.62" class="st4" width="11.84" height="11.84"/>
			<path class="st5" d="M4.05-10.25c0,0.63-0.51,1.14-1.14,1.14s-1.14-0.51-1.14-1.14"/>
			<path class="st5" d="M10.66-3.43c0,0.63-0.51,1.14-1.14,1.14c-0.63,0-1.14-0.51-1.14-1.14c0,0.63-0.51,1.14-1.14,1.14
				c-0.63,0-1.14-0.51-1.14-1.14"/>
			<path class="st6" d="M10.8-9.41c0,0.33-0.27,0.6-0.6,0.6c-0.33,0-0.6-0.27-0.6-0.6c0,0.33-0.27,0.6-0.6,0.6
				c-0.33,0-0.6-0.27-0.6-0.6"/>
			<path class="st6" d="M3.66-4.48c0,0.33-0.27,0.6-0.6,0.6c-0.33,0-0.6-0.27-0.6-0.6c0,0.33-0.27,0.6-0.6,0.6
				c-0.33,0-0.6-0.27-0.6-0.6"/>
			<path class="st11" d="M6.63-6.89c0,0.33-0.27,0.6-0.6,0.6c-0.33,0-0.6-0.27-0.6-0.6c0-0.33,0.27-0.6,0.6-0.6
				C6.36-7.49,6.63-7.22,6.63-6.89z"/>
			<path class="st11" d="M10.66-11.51c0,0.33-0.27,0.6-0.6,0.6c-0.33,0-0.6-0.27-0.6-0.6s0.27-0.6,0.6-0.6
				C10.39-12.11,10.66-11.84,10.66-11.51z"/>
			<path class="st11" d="M4.87-0.6C4.87-0.27,4.6,0,4.27,0c-0.33,0-0.6-0.27-0.6-0.6s0.27-0.6,0.6-0.6C4.6-1.21,4.87-0.94,4.87-0.6z
				"/>
		</g>
		<g>
			<path class="st11" d="M4.87-12.44c0,0.33-0.27,0.6-0.6,0.6c-0.33,0-0.6-0.27-0.6-0.6s0.27-0.6,0.6-0.6
				C4.6-13.04,4.87-12.77,4.87-12.44z"/>
		</g>
	</g>
</pattern>
<g id="BACKGROUND">
	<rect id="XMLID_2_" class="st12" width="1666.45" height="500"/>
	<rect x="497.93" y="158.71" class="st0" width="1155.77" height="273.7"/>
	<text transform="matrix(1 0 0 1 497.9256 313.6832)" class="st13 st14 st15 st16">Project Map</text>
	<rect x="904.57" y="671.43" class="st0" width="12.26" height="14.3"/>
</g>
<g id="OBJECTS">
	<g>
		<path class="st17" d="M116.92,202.76l8.48,4.9c3.07,1.77,4.61,4.1,4.6,6.43l0.05-19.04c0.01-2.33-1.53-4.65-4.6-6.43l-8.48-4.9
			c-3.07-1.77-4.61-4.1-4.6-6.43l-0.05,19.04C112.31,198.65,113.84,200.98,116.92,202.76z M425.84,215.71l2.91-1.69
			c3.02-1.75,4.53-4.05,4.54-6.35l0.05-19.04c-0.01,2.3-1.52,4.59-4.54,6.35l-2.91,1.69c-3.02,1.75-4.52,4.04-4.53,6.34l-0.05,19.04
			C421.31,219.75,422.82,217.46,425.84,215.71z M424.87,251.95l9.77-5.68c3.02-1.75,4.53-4.05,4.53-6.35l0.05-19.04
			c-0.01,2.3-1.52,4.59-4.53,6.35l-9.77,5.68c-3.02,1.75-4.53,4.05-4.54,6.35l-0.05,19.04C420.34,256,421.85,253.7,424.87,251.95z
			 M64.44,268.72l13.84,7.99c3.08,1.78,4.61,4.11,4.61,6.44l0.05-19.04c0.01-2.33-1.53-4.66-4.61-6.44l-13.84-7.99
			c-3.08-1.78-4.61-4.11-4.61-6.44l-0.05,19.04C59.83,264.61,61.37,266.95,64.44,268.72z M451.01,273.45L289.9,367.08
			c-6.07,3.53-15.96,3.53-22.07,0l-3.58-2.07c-6.11-3.53-16-3.53-22.07,0c-6.07,3.53-15.95,3.53-22.06,0l-35.33-20.4
			c-6.11-3.53-15.99-3.52-22.06,0l-7.38,4.29c-6.07,3.53-15.96,3.53-22.07,0l-84.18-48.6c-3.07-1.77-4.61-4.1-4.6-6.43l-0.05,19.04
			c-0.01,2.33,1.53,4.65,4.6,6.43l84.18,48.6c6.11,3.53,16,3.53,22.07,0l7.38-4.29c6.07-3.53,15.95-3.53,22.06,0l35.33,20.4
			c6.11,3.53,16,3.53,22.06,0c6.07-3.53,15.96-3.53,22.07,0l3.58,2.07c6.11,3.53,16,3.53,22.07,0l161.11-93.63
			c3.02-1.75,4.53-4.05,4.53-6.35l0.05-19.04C455.54,269.41,454.03,271.7,451.01,273.45z"/>
		<path class="st18" d="M116.92,202.76l8.48,4.9c3.07,1.77,4.61,4.1,4.6,6.43l0.05-19.04c0.01-2.33-1.53-4.65-4.6-6.43l-8.48-4.9
			c-3.07-1.77-4.61-4.1-4.6-6.43l-0.05,19.04C112.31,198.65,113.84,200.98,116.92,202.76z M425.84,215.71l2.91-1.69
			c3.02-1.75,4.53-4.05,4.54-6.35l0.05-19.04c-0.01,2.3-1.52,4.59-4.54,6.35l-2.91,1.69c-3.02,1.75-4.52,4.04-4.53,6.34l-0.05,19.04
			C421.31,219.75,422.82,217.46,425.84,215.71z M424.87,251.95l9.77-5.68c3.02-1.75,4.53-4.05,4.53-6.35l0.05-19.04
			c-0.01,2.3-1.52,4.59-4.53,6.35l-9.77,5.68c-3.02,1.75-4.53,4.05-4.54,6.35l-0.05,19.04C420.34,256,421.85,253.7,424.87,251.95z
			 M64.44,268.72l13.84,7.99c3.08,1.78,4.61,4.11,4.61,6.44l0.05-19.04c0.01-2.33-1.53-4.66-4.61-6.44l-13.84-7.99
			c-3.08-1.78-4.61-4.11-4.61-6.44l-0.05,19.04C59.83,264.61,61.37,266.95,64.44,268.72z M451.01,273.45L289.9,367.08
			c-6.07,3.53-15.96,3.53-22.07,0l-3.58-2.07c-6.11-3.53-16-3.53-22.07,0c-6.07,3.53-15.95,3.53-22.06,0l-35.33-20.4
			c-6.11-3.53-15.99-3.52-22.06,0l-7.38,4.29c-6.07,3.53-15.96,3.53-22.07,0l-84.18-48.6c-3.07-1.77-4.61-4.1-4.6-6.43l-0.05,19.04
			c-0.01,2.33,1.53,4.65,4.6,6.43l84.18,48.6c6.11,3.53,16,3.53,22.07,0l7.38-4.29c6.07-3.53,15.95-3.53,22.06,0l35.33,20.4
			c6.11,3.53,16,3.53,22.06,0c6.07-3.53,15.96-3.53,22.07,0l3.58,2.07c6.11,3.53,16,3.53,22.07,0l161.11-93.63
			c3.02-1.75,4.53-4.05,4.53-6.35l0.05-19.04C455.54,269.41,454.03,271.7,451.01,273.45z"/>
		<pattern  id="SVGID_1_" xlink:href="#New_Pattern" patternTransform="matrix(1 0 0 1 1.200000e-05 9.8605)">
		</pattern>
		<path class="st19" d="M428.74,182.2c6.11,3.53,6.14,9.25,0.06,12.78l-2.91,1.69c-6.07,3.53-6.03,9.25,0.08,12.78l8.66,5
			c6.11,3.53,6.15,9.25,0.07,12.78l-9.77,5.68c-6.07,3.53-6.05,9.25,0.06,12.78l25.95,14.98c6.11,3.53,6.15,9.25,0.07,12.78
			L289.9,367.08c-6.07,3.53-15.96,3.53-22.07,0l-3.58-2.07c-6.11-3.53-16-3.53-22.07,0c-6.07,3.53-15.95,3.53-22.06,0l-35.33-20.4
			c-6.11-3.53-15.99-3.52-22.06,0l-7.38,4.29c-6.07,3.53-15.96,3.53-22.07,0l-84.18-48.6c-6.11-3.53-6.14-9.25-0.06-12.78
			l29.37-17.07c6.07-3.53,6.04-9.25-0.07-12.78l-13.84-7.99c-6.11-3.53-6.15-9.25-0.07-12.78l61.1-35.5
			c6.07-3.53,6.05-9.25-0.06-12.78l-8.48-4.9c-6.11-3.52-6.15-9.25-0.07-12.77l46.31-26.91c6.07-3.53,15.95-3.53,22.05,0l8.48,4.9
			c6.11,3.53,15.99,3.52,22.06,0l9.72-5.65c6.07-3.53,15.96-3.53,22.07,0l18.15,10.48c6.11,3.53,15.99,3.52,22.06,0l34.67-20.15
			c6.07-3.53,15.96-3.53,22.07,0L428.74,182.2z"/>
		<path class="st20" d="M170.62,246.75c0.84,1.75-4.21,5.92-11.28,9.33c-7.07,3.41-13.48,4.76-14.32,3.01
			c-0.84-1.75,4.21-5.92,11.28-9.33C163.37,246.36,169.78,245.01,170.62,246.75z"/>
		<path class="st20" d="M325.65,162.65c0.84,1.75-4.21,5.92-11.28,9.33c-7.07,3.41-13.48,4.76-14.32,3.01
			c-0.84-1.75,4.21-5.92,11.28-9.33C318.4,162.25,324.81,160.9,325.65,162.65z"/>
		<path class="st20" d="M290.48,264.68c1.45,3-7.23,10.18-19.39,16.04c-12.16,5.86-23.18,8.18-24.63,5.18
			c-1.45-3,7.23-10.18,19.39-16.04C278,264,289.03,261.68,290.48,264.68z"/>
		<g>
			<path class="st21" d="M398.14,238.86l38.98-22.51c-0.68-0.68-1.5-1.32-2.5-1.9l-5.24-3.02l-98.27,56.74l-50.53-29.18l15.79-9.12
				l-27.99-16.16l25.75-14.87l44.99,25.98l81.72-47.18l-13.02-7.51l-14.77,8.53l-74.29-42.89l-12.97,7.54l74.25,42.87l-40.91,23.62
				l-44.99-25.98l-38.76,22.38l-57.18-33.01l50.61-29.22l-1.2-0.69c-6.11-3.53-16-3.53-22.07,0l-9.72,5.65
				c-1.48,0.86-3.18,1.51-5,1.95l-38.65,22.31l32.96,19.03l-89.29,51.55l-31.71-18.31L71.14,233l44.68,25.8l55.72-32.17l52.21,30.14
				l-99.8,57.62l-60.76-35.08l-12.97,7.54l60.72,35.06l-12.21,7.05l13.02,7.51l55.96-32.31l86.55,49.97l-23.42,13.52
				c4.1,0.05,8.23-0.82,11.34-2.63c3.75-2.18,8.95-3.01,13.81-2.5l6.39-3.69l13.02-7.51l112.07-64.7l20.52,11.84l11.43-6.64
				l-20.48-11.82l22.2-12.82l20.41,11.78l9.46-5.5c1.23-0.72,2.2-1.52,2.93-2.38L398.14,238.86z M179.68,221.93l38.45-22.2
				l52.21,30.14l-38.45,22.2L179.68,221.93z M272.44,243.69l50.53,29.18l-38.25,22.09l-74.47-15.36L272.44,243.69z M267.27,346.62
				l-86.55-49.97l18.94-10.93l86.46,17.83l65.35-37.73l27.89,16.1L267.27,346.62z M390.81,275.29l-27.89-16.1l22.2-12.82l27.89,16.1
				L390.81,275.29z"/>
			<path class="st22" d="M318.76,138.08l73.29,42.31l1,0.58l1-0.58l13.77-7.95l9.02,5.21l-77.72,44.87l-43.99-25.4l-1-0.58l-1,0.58
				l-25.75,14.87l-3,1.73l3,1.73l24.99,14.43l-12.79,7.39l-3,1.73l3,1.73l50.53,29.18l1,0.58l1-0.58l97.27-56.16l4.14,2.39
				l-36.38,21l-3,1.73l3,1.73l53.38,30.82c-0.17,0.11-0.34,0.21-0.52,0.32l-8.46,4.91l-19.4-11.2l-1-0.58l-1,0.58l-22.2,12.82
				l-3,1.73l3,1.73l17.49,10.1l-7.45,4.33l-19.51-11.27l-1-0.58l-1,0.58l-112.07,64.7l-13.02,7.51l-5.84,3.37
				c-0.78-0.06-1.57-0.1-2.35-0.1c-2.65,0-5.22,0.36-7.54,1.03l9.6-5.54l3-1.73l-3-1.73l-86.55-49.97l-1-0.58l-1,0.58l-54.96,31.73
				l-9.02-5.21l9.21-5.32l3-1.73l-3-1.73l-57.73-33.33l8.99-5.22l59.76,34.5l1,0.58l1-0.58l99.8-57.62l3-1.73l-3-1.73l-52.21-30.14
				l-1-0.58l-1,0.58l-54.72,31.59l-40.69-23.49l8.99-5.22l30.71,17.73l1,0.58l1-0.58l89.29-51.55l3-1.73l-3-1.73l-29.96-17.3
				l35.4-20.44c1.96-0.5,3.72-1.2,5.25-2.09l9.72-5.65c2.64-1.53,6.19-2.38,10.01-2.38c2.95,0,5.74,0.5,8.08,1.43l-47.45,27.39
				l-3,1.73l3,1.73l57.18,33.01l1,0.58l1-0.58l37.76-21.8l43.99,25.4l1,0.58l1-0.58l40.91-23.62l3-1.73l-3-1.73l-71.26-41.14
				L318.76,138.08 M231.89,254.38l1-0.58l38.45-22.2l3-1.73l-3-1.73L219.13,198l-1-0.58l-1,0.58l-38.45,22.2l-3,1.73l3,1.73
				l52.21,30.14L231.89,254.38 M285.06,297.06l0.66-0.38l38.25-22.09l3-1.73l-3-1.73l-50.53-29.17l-1-0.58l-1,0.58l-62.19,35.91
				l-4.55,2.63l5.15,1.06l74.47,15.36L285.06,297.06 M390.81,277.6l1-0.58l22.2-12.82l3-1.73l-3-1.73l-27.89-16.1l-1-0.58l-1,0.58
				l-22.2,12.82l-3,1.73l3,1.73l27.89,16.1L390.81,277.6 M285.77,301.43l-85.71-17.67l-0.75-0.15l-0.66,0.38l-18.94,10.93l-3,1.73
				l3,1.73l86.55,49.97l1,0.58l1-0.58l112.07-64.7l3-1.73l-3-1.73l-27.89-16.1l-1-0.58l-1,0.58L285.77,301.43 M318.76,135.77
				l-12.97,7.54l74.25,42.87l-40.91,23.62l-44.99-25.98l-38.76,22.38l-57.18-33.01l50.61-29.22l-1.2-0.69
				c-3.06-1.76-7.06-2.65-11.05-2.65c-3.99,0-7.98,0.88-11.02,2.65l-9.72,5.65c-1.48,0.86-3.18,1.51-5,1.95l-38.65,22.31
				l32.96,19.03l-89.29,51.55l-31.71-18.31L71.14,233l44.68,25.8l55.72-32.17l52.21,30.14l-99.8,57.62l-60.76-35.08l-12.97,7.54
				l60.72,35.06l-12.21,7.05l13.02,7.51l55.96-32.31l86.55,49.97l-23.42,13.52c0.11,0,0.23,0,0.34,0c3.99,0,7.98-0.87,11.01-2.64
				c3.03-1.76,7.02-2.64,11.01-2.64c0.94,0,1.88,0.05,2.8,0.15l6.39-3.69l13.02-7.51l112.07-64.7l20.52,11.84l11.43-6.64
				l-20.48-11.82l22.2-12.82l20.41,11.78l9.46-5.5c1.23-0.72,2.2-1.52,2.93-2.38l-55.8-32.21l38.98-22.51
				c-0.68-0.68-1.5-1.32-2.5-1.9l-5.24-3.02l-98.27,56.74l-50.53-29.18l15.79-9.12l-27.99-16.16l25.75-14.87l44.99,25.98
				l81.72-47.18l-13.02-7.51l-14.77,8.53L318.76,135.77L318.76,135.77z M231.89,252.07l-52.21-30.14l38.45-22.2l52.21,30.14
				L231.89,252.07L231.89,252.07z M284.72,294.95l-74.47-15.36l62.19-35.91l50.53,29.18L284.72,294.95L284.72,294.95z
				 M390.81,275.29l-27.89-16.1l22.2-12.82l27.89,16.1L390.81,275.29L390.81,275.29z M286.11,303.54l65.35-37.73l27.89,16.1
				l-112.07,64.7l-86.55-49.97l18.94-10.93L286.11,303.54L286.11,303.54z"/>
		</g>
		<g>
			<g class="st23">
				<g>
					<polygon class="st24" points="73.53,325.86 73.56,334.01 82.19,329.02 82.17,320.87 					"/>
				</g>
				<g>
					<polygon class="st24" points="49.38,339.8 49.4,347.95 58.04,342.96 58.02,334.81 					"/>
				</g>
				<g>
					<polygon class="st24" points="100.97,359.77 100.99,367.92 116.51,358.97 116.48,350.82 					"/>
				</g>
				<g>
					<polygon class="st25" points="58.02,334.81 58.04,342.96 100.99,367.92 100.97,359.77 					"/>
				</g>
				<g>
					<polygon class="st10" points="49.49,320.87 49.38,339.8 58.02,334.81 100.97,359.77 116.48,350.82 73.53,325.86 82.17,320.87 
											"/>
				</g>
			</g>
		</g>
		<g>
			<path class="st26" d="M314.88,116.73c3.71-2.14,7.42-2.66,10.26-1.04l-5.87-3.41c-2.84-1.62-6.55-1.1-10.26,1.04
				c-3.71,2.14-7.41,5.91-10.23,10.79c-4.46,7.73-5.49,16.23-2.54,20.98l12.92,20.82l5.87,3.41l-12.92-20.82
				c-2.95-4.75-1.92-13.25,2.54-20.98C307.47,122.64,311.17,118.87,314.88,116.73z"/>
			<path class="st11" d="M314.88,116.73c3.71-2.14,7.42-2.66,10.26-1.04c4.49,2.56,5.56,9.85,2.65,17.99l-12.76,35.64l-12.92-20.82
				c-2.95-4.75-1.92-13.25,2.54-20.98C307.47,122.64,311.17,118.87,314.88,116.73z"/>
			<ellipse transform="matrix(0.5 -0.866 0.866 0.5 42.5686 339.897)" class="st27" cx="315.64" cy="133.08" rx="13.75" ry="7.94"/>
		</g>
		<g>
			<path class="st26" d="M159.47,202.3c3.71-2.14,7.42-2.66,10.26-1.04l-5.87-3.41c-2.84-1.62-6.55-1.1-10.26,1.04
				c-3.71,2.14-7.41,5.91-10.23,10.79c-4.46,7.73-5.49,16.23-2.54,20.98l12.92,20.82l5.87,3.41l-12.92-20.82
				c-2.95-4.75-1.92-13.25,2.54-20.98C152.06,208.21,155.77,204.44,159.47,202.3z"/>
			<path class="st11" d="M159.47,202.3c3.71-2.14,7.42-2.66,10.26-1.04c4.49,2.56,5.56,9.85,2.65,17.99l-12.76,35.64l-12.92-20.82
				c-2.95-4.75-1.92-13.25,2.54-20.98C152.06,208.21,155.77,204.44,159.47,202.3z"/>
			
				<ellipse transform="matrix(0.5 -0.866 0.866 0.5 -109.2428 248.0936)" class="st27" cx="160.23" cy="218.65" rx="13.75" ry="7.94"/>
		</g>
		<g>
			<path class="st26" d="M271.06,184.06c5.7-3.29,11.42-4.09,15.78-1.6l-9.02-5.24c-4.37-2.49-10.08-1.7-15.78,1.6
				c-5.7,3.29-11.4,9.09-15.74,16.6c-6.87,11.89-8.45,24.97-3.91,32.28l19.88,32.02l9.02,5.24l-19.88-32.02
				c-4.54-7.31-2.96-20.39,3.91-32.28C259.65,193.15,265.35,187.35,271.06,184.06z"/>
			<path class="st11" d="M271.06,184.06c5.7-3.29,11.42-4.09,15.78-1.6c6.91,3.94,8.56,15.15,4.07,27.67l-19.63,54.83l-19.88-32.02
				c-4.54-7.31-2.96-20.39,3.91-32.28C259.65,193.15,265.35,187.35,271.06,184.06z"/>
			
				<ellipse transform="matrix(0.5 -0.866 0.866 0.5 -45.0722 340.36)" class="st27" cx="272.23" cy="209.21" rx="21.15" ry="12.21"/>
		</g>
		<g>
			<polygon class="st17" points="143.6,145.76 143.6,169.42 146.46,167.77 146.46,144.11 			"/>
			<pattern  id="SVGID_2_" xlink:href="#New_Pattern_2" patternTransform="matrix(1 0 0 1 1.200000e-05 9.8605)">
			</pattern>
			<path class="st28" d="M156.82,139.99c0,6.51-5.28,11.79-11.79,11.79c-6.51,0-11.79-5.28-11.79-11.79
				c0-6.51,5.28-28.75,11.79-28.75C151.54,111.23,156.82,133.48,156.82,139.99z"/>
			<path class="st29" d="M153.46,123.46c0.01,0.24,0.02,0.47,0.02,0.71c0,11.06-7.43,20.39-17.58,23.26
				c2.16,2.65,5.45,4.34,9.13,4.34c6.51,0,11.79-5.28,11.79-11.79C156.82,136.78,155.54,129.76,153.46,123.46z"/>
			<path class="st30" d="M145.03,127.2c-1,4.57-3.23,7.96-5,7.57c-1.77-0.39-2.39-4.4-1.4-8.97c1-4.57,3.23-7.96,5-7.57
				C145.4,118.61,146.02,122.63,145.03,127.2z"/>
		</g>
		<g>
			<polygon class="st17" points="144.93,309.82 144.93,333.48 147.79,331.83 147.79,308.16 			"/>
			<pattern  id="SVGID_3_" xlink:href="#New_Pattern_2" patternTransform="matrix(1 0 0 1 1.200000e-05 9.8605)">
			</pattern>
			<path class="st31" d="M158.14,304.04c0,6.51-5.28,11.79-11.79,11.79c-6.51,0-11.79-5.28-11.79-11.79s5.28-28.75,11.79-28.75
				C152.87,275.29,158.14,297.53,158.14,304.04z"/>
			<path class="st29" d="M154.79,287.52c0.01,0.24,0.02,0.47,0.02,0.71c0,11.06-7.43,20.39-17.58,23.26
				c2.16,2.65,5.45,4.34,9.13,4.34c6.51,0,11.79-5.28,11.79-11.79C158.14,300.84,156.86,293.82,154.79,287.52z"/>
			<path class="st30" d="M146.36,291.25c-1,4.57-3.23,7.96-5,7.57c-1.77-0.39-2.39-4.4-1.4-8.97c1-4.57,3.23-7.96,5-7.57
				S147.35,286.68,146.36,291.25z"/>
		</g>
		<g>
			<polygon class="st17" points="172.58,311.65 172.58,335.31 175.44,333.66 175.44,309.99 			"/>
			<pattern  id="SVGID_4_" xlink:href="#New_Pattern_4" patternTransform="matrix(1 0 0 1 1.200000e-05 9.8605)">
			</pattern>
			<path class="st32" d="M185.79,305.87c0,6.51-5.28,11.79-11.79,11.79c-6.51,0-11.79-5.28-11.79-11.79s5.28-28.75,11.79-28.75
				C180.52,277.12,185.79,299.36,185.79,305.87z"/>
			<path class="st29" d="M182.44,289.35c0.01,0.24,0.02,0.47,0.02,0.71c0,11.06-7.43,20.39-17.58,23.26
				c2.16,2.65,5.45,4.34,9.13,4.34c6.51,0,11.79-5.28,11.79-11.79C185.79,302.67,184.51,295.65,182.44,289.35z"/>
			<path class="st30" d="M174.01,293.08c-1,4.57-3.23,7.96-5,7.57c-1.77-0.39-2.39-4.4-1.4-8.97c1-4.57,3.23-7.96,5-7.57
				C174.38,284.5,175,288.51,174.01,293.08z"/>
		</g>
		<g>
			<polygon class="st17" points="242.12,288.58 242.12,312.24 244.99,310.59 244.99,286.93 			"/>
			<pattern  id="SVGID_5_" xlink:href="#New_Pattern_3" patternTransform="matrix(1 0 0 1 1.200000e-05 9.8605)">
			</pattern>
			<path class="st33" d="M255.34,282.81c0,6.51-5.28,11.78-11.79,11.78s-11.79-5.28-11.79-11.78s5.28-28.75,11.79-28.75
				S255.34,276.3,255.34,282.81z"/>
			<path class="st29" d="M251.98,266.29c0.01,0.24,0.02,0.47,0.02,0.71c0,11.06-7.43,20.39-17.58,23.26
				c2.16,2.65,5.45,4.34,9.13,4.34c6.51,0,11.79-5.28,11.79-11.78C255.34,279.6,254.06,272.59,251.98,266.29z"/>
			<path class="st30" d="M243.55,270.02c-1,4.57-3.23,7.96-5,7.57c-1.77-0.39-2.39-4.4-1.4-8.97c1-4.57,3.23-7.96,5-7.57
				C243.92,261.43,244.55,265.45,243.55,270.02z"/>
		</g>
		<g>
			<polygon class="st17" points="361.5,292.36 361.5,316.02 364.36,314.37 364.36,290.71 			"/>
			<pattern  id="SVGID_6_" xlink:href="#New_Pattern_2" patternTransform="matrix(1 0 0 1 1.200000e-05 9.8605)">
			</pattern>
			<path class="st34" d="M374.71,286.59c0,6.51-5.28,11.79-11.79,11.79s-11.79-5.28-11.79-11.79s5.28-28.75,11.79-28.75
				S374.71,280.08,374.71,286.59z"/>
			<path class="st29" d="M371.36,270.06c0.01,0.24,0.02,0.47,0.02,0.71c0,11.06-7.43,20.39-17.58,23.26
				c2.16,2.65,5.45,4.34,9.13,4.34c6.51,0,11.79-5.28,11.79-11.79C374.71,283.38,373.43,276.36,371.36,270.06z"/>
			<path class="st30" d="M362.93,273.8c-1,4.57-3.23,7.96-5,7.57c-1.77-0.39-2.39-4.4-1.4-8.97c1-4.57,3.23-7.96,5-7.57
				C363.3,265.21,363.92,269.23,362.93,273.8z"/>
		</g>
		<g>
			<polygon class="st17" points="309.99,214.65 309.99,238.31 312.85,236.65 312.85,212.99 			"/>
			<pattern  id="SVGID_7_" xlink:href="#New_Pattern_2" patternTransform="matrix(1 0 0 1 1.200000e-05 9.8605)">
			</pattern>
			<path class="st35" d="M323.2,208.87c0,6.51-5.28,11.78-11.79,11.78s-11.79-5.28-11.79-11.78c0-6.51,5.28-28.75,11.79-28.75
				S323.2,202.36,323.2,208.87z"/>
			<path class="st29" d="M319.85,192.35c0.01,0.24,0.02,0.47,0.02,0.71c0,11.06-7.43,20.39-17.58,23.26
				c2.16,2.65,5.45,4.34,9.13,4.34c6.51,0,11.79-5.28,11.79-11.79C323.2,205.67,321.92,198.65,319.85,192.35z"/>
			<path class="st30" d="M311.42,196.08c-1,4.57-3.23,7.96-5,7.57c-1.77-0.38-2.39-4.4-1.4-8.97c1-4.57,3.23-7.96,5-7.57
				C311.79,187.5,312.41,191.51,311.42,196.08z"/>
		</g>
		<g>
			<polygon class="st17" points="243.55,153.37 243.55,177.03 246.42,175.38 246.42,151.72 			"/>
			<pattern  id="SVGID_8_" xlink:href="#New_Pattern_4" patternTransform="matrix(1 0 0 1 1.200000e-05 9.8605)">
			</pattern>
			<path class="st36" d="M256.77,147.6c0,6.51-5.28,11.79-11.79,11.79s-11.79-5.28-11.79-11.79c0-6.51,5.28-28.75,11.79-28.75
				S256.77,141.09,256.77,147.6z"/>
			<path class="st29" d="M253.41,131.07c0.01,0.24,0.02,0.47,0.02,0.71c0,11.06-7.43,20.39-17.58,23.26
				c2.16,2.65,5.45,4.34,9.13,4.34c6.51,0,11.79-5.28,11.79-11.78C256.77,144.39,255.49,137.38,253.41,131.07z"/>
			<path class="st30" d="M244.98,134.81c-1,4.57-3.23,7.96-5,7.57c-1.77-0.39-2.39-4.4-1.4-8.97c1-4.57,3.23-7.96,5-7.57
				C245.35,126.22,245.98,130.24,244.98,134.81z"/>
		</g>
		<g>
			<polygon class="st17" points="402.84,192.58 402.84,216.25 405.7,214.59 405.7,190.93 			"/>
			<pattern  id="SVGID_9_" xlink:href="#New_Pattern_4" patternTransform="matrix(1 0 0 1 1.200000e-05 9.8605)">
			</pattern>
			<path class="st37" d="M416.05,186.81c0,6.51-5.28,11.79-11.79,11.79s-11.79-5.28-11.79-11.79s5.28-28.75,11.79-28.75
				S416.05,180.3,416.05,186.81z"/>
			<path class="st29" d="M412.7,170.29c0.01,0.24,0.02,0.47,0.02,0.71c0,11.06-7.43,20.39-17.58,23.26
				c2.16,2.65,5.45,4.34,9.13,4.34c6.51,0,11.79-5.28,11.79-11.79C416.05,183.6,414.77,176.59,412.7,170.29z"/>
			<path class="st30" d="M404.26,174.02c-1,4.57-3.23,7.96-5,7.57c-1.77-0.39-2.39-4.4-1.4-8.97c1-4.57,3.23-7.96,5-7.57
				C404.64,165.44,405.26,169.45,404.26,174.02z"/>
		</g>
		<g>
			<polygon class="st17" points="107.54,205.16 107.54,228.82 110.4,227.17 110.4,203.51 			"/>
			<pattern  id="SVGID_10_" xlink:href="#New_Pattern_2" patternTransform="matrix(1 0 0 1 1.200000e-05 9.8605)">
			</pattern>
			<path class="st38" d="M120.75,199.39c0,6.51-5.28,11.78-11.79,11.78c-6.51,0-11.79-5.28-11.79-11.78s5.28-28.75,11.79-28.75
				C115.48,170.63,120.75,192.88,120.75,199.39z"/>
			<path class="st29" d="M117.4,182.86c0.01,0.24,0.02,0.47,0.02,0.71c0,11.06-7.43,20.39-17.58,23.26
				c2.16,2.65,5.45,4.34,9.13,4.34c6.51,0,11.79-5.28,11.79-11.79C120.75,196.18,119.47,189.16,117.4,182.86z"/>
			<path class="st30" d="M108.97,186.6c-1,4.57-3.23,7.96-5,7.57c-1.77-0.38-2.39-4.4-1.4-8.97c1-4.57,3.23-7.96,5-7.57
				C109.34,178.01,109.96,182.03,108.97,186.6z"/>
		</g>
		<g>
			<path class="st17" d="M170.81,342.13c-2.96,0.33-5.79,1.16-8.07,2.49l-7.38,4.29c-2.52,1.47-5.7,2.31-9,2.56v19.03
				c3.27-0.25,6.44-1.1,8.94-2.56l7.38-4.29c2.3-1.34,5.15-2.17,8.13-2.49V342.13z"/>
			<path class="st17" d="M280.03,388.73c3.58-0.16,7.09-1.03,9.82-2.61l161.11-93.63c3.02-1.75,4.53-4.05,4.53-6.35l0.05-19.04
				c-0.01,2.3-1.52,4.59-4.53,6.35L289.9,367.08c-2.75,1.6-6.27,2.46-9.87,2.62V388.73z"/>
			<path class="st17" d="M234.42,386.48c2.83-0.35,5.52-1.16,7.71-2.43c2.23-1.3,4.98-2.11,7.87-2.46v-19.03
				c-2.87,0.35-5.6,1.16-7.81,2.45c-2.2,1.28-4.91,2.09-7.76,2.44V386.48z"/>
		</g>
		<g>
			<g class="st23">
				<g>
					<polygon class="st25" points="381.44,325.86 381.42,334.01 372.79,329.02 372.81,320.87 					"/>
				</g>
				<g>
					<polygon class="st25" points="405.59,339.8 405.57,347.95 396.93,342.96 396.96,334.81 					"/>
				</g>
				<g>
					<polygon class="st25" points="354.01,359.77 353.98,367.92 338.47,358.97 338.49,350.82 					"/>
				</g>
				<g>
					<polygon class="st24" points="396.96,334.81 396.93,342.96 353.98,367.92 354.01,359.77 					"/>
				</g>
				<g>
					<polygon class="st10" points="405.48,320.87 405.59,339.8 396.96,334.81 354.01,359.77 338.49,350.82 381.44,325.86 
						372.81,320.87 					"/>
				</g>
			</g>
		</g>
	</g>
</g>
<g id="Designed_By_Freepik" class="st39">
	<g id="Freepik_Sign_1_" class="st40">
		<g id="XMLID_43_">
			<path id="XMLID_68_" class="st41" d="M180.31,462.75v-0.16c-0.22,0.25-0.43,0.45-0.64,0.61c-0.21,0.16-0.44,0.28-0.69,0.36
				c-0.25,0.08-0.52,0.12-0.81,0.12c-0.39,0-0.75-0.08-1.08-0.25c-0.33-0.16-0.62-0.4-0.86-0.7c-0.24-0.3-0.42-0.66-0.55-1.07
				c-0.12-0.41-0.19-0.86-0.19-1.34c0-1.01,0.25-1.8,0.74-2.37c0.49-0.57,1.15-0.85,1.95-0.85c0.47,0,0.86,0.08,1.18,0.24
				c0.32,0.16,0.63,0.41,0.94,0.74v-2.39c0-0.33,0.07-0.58,0.2-0.75c0.13-0.17,0.32-0.26,0.57-0.26c0.25,0,0.43,0.08,0.57,0.23
				c0.13,0.16,0.2,0.39,0.2,0.69v7.15c0,0.31-0.07,0.54-0.21,0.69c-0.14,0.15-0.33,0.23-0.55,0.23c-0.22,0-0.4-0.08-0.55-0.24
				C180.38,463.27,180.31,463.04,180.31,462.75z M177.12,460.37c0,0.44,0.07,0.81,0.2,1.12c0.14,0.31,0.32,0.54,0.56,0.7
				c0.24,0.16,0.5,0.24,0.78,0.24c0.29,0,0.54-0.07,0.78-0.22c0.24-0.15,0.42-0.38,0.56-0.68c0.14-0.31,0.21-0.69,0.21-1.15
				c0-0.43-0.07-0.8-0.21-1.11c-0.14-0.31-0.33-0.55-0.57-0.71c-0.24-0.16-0.5-0.25-0.79-0.25c-0.3,0-0.56,0.08-0.8,0.25
				c-0.23,0.17-0.41,0.41-0.54,0.72C177.18,459.59,177.12,459.95,177.12,460.37z"/>
			<path id="XMLID_65_" class="st41" d="M187.45,460.78h-3.17c0,0.37,0.08,0.69,0.22,0.97c0.14,0.28,0.34,0.49,0.58,0.63
				c0.24,0.14,0.5,0.21,0.79,0.21c0.19,0,0.37-0.02,0.53-0.07c0.16-0.05,0.32-0.12,0.47-0.21c0.15-0.1,0.29-0.2,0.42-0.31
				c0.13-0.11,0.29-0.26,0.49-0.45c0.08-0.07,0.2-0.11,0.36-0.11c0.17,0,0.3,0.05,0.4,0.14c0.1,0.09,0.15,0.22,0.15,0.39
				c0,0.15-0.06,0.32-0.17,0.51c-0.12,0.2-0.29,0.38-0.52,0.56c-0.23,0.18-0.52,0.33-0.87,0.45c-0.35,0.12-0.75,0.18-1.21,0.18
				c-1.04,0-1.85-0.3-2.43-0.89c-0.58-0.59-0.87-1.4-0.87-2.42c0-0.48,0.07-0.92,0.21-1.33c0.14-0.41,0.35-0.76,0.62-1.05
				c0.27-0.29,0.61-0.52,1.01-0.67c0.4-0.16,0.84-0.23,1.33-0.23c0.63,0,1.18,0.13,1.63,0.4c0.45,0.27,0.79,0.61,1.02,1.04
				c0.22,0.42,0.34,0.86,0.34,1.29c0,0.41-0.12,0.67-0.35,0.79C188.21,460.72,187.88,460.78,187.45,460.78z M184.28,459.86h2.94
				c-0.04-0.55-0.19-0.97-0.45-1.24c-0.26-0.28-0.6-0.41-1.02-0.41c-0.4,0-0.74,0.14-0.99,0.42
				C184.5,458.9,184.34,459.31,184.28,459.86z"/>
			<path id="XMLID_63_" class="st41" d="M194.84,461.55c0,0.45-0.11,0.83-0.33,1.15c-0.22,0.32-0.54,0.56-0.96,0.73
				c-0.43,0.16-0.94,0.25-1.55,0.25c-0.58,0-1.08-0.09-1.5-0.27c-0.42-0.18-0.72-0.4-0.92-0.67c-0.2-0.27-0.3-0.54-0.3-0.81
				c0-0.18,0.06-0.33,0.19-0.46c0.13-0.13,0.29-0.19,0.48-0.19c0.17,0,0.3,0.04,0.39,0.12c0.09,0.08,0.18,0.2,0.26,0.35
				c0.17,0.29,0.37,0.5,0.6,0.65c0.23,0.14,0.55,0.21,0.95,0.21c0.32,0,0.59-0.07,0.8-0.22c0.21-0.15,0.31-0.31,0.31-0.5
				c0-0.29-0.11-0.49-0.32-0.62c-0.22-0.13-0.57-0.26-1.07-0.37c-0.56-0.14-1.01-0.28-1.36-0.44c-0.35-0.15-0.63-0.35-0.84-0.6
				c-0.21-0.25-0.31-0.56-0.31-0.92c0-0.32,0.1-0.63,0.29-0.92c0.19-0.29,0.48-0.52,0.86-0.69c0.38-0.17,0.83-0.26,1.37-0.26
				c0.42,0,0.8,0.04,1.13,0.13c0.33,0.09,0.61,0.2,0.84,0.35c0.22,0.15,0.39,0.31,0.51,0.49c0.12,0.18,0.17,0.35,0.17,0.52
				c0,0.19-0.06,0.34-0.19,0.46c-0.12,0.12-0.3,0.18-0.53,0.18c-0.17,0-0.31-0.05-0.42-0.14c-0.12-0.09-0.25-0.24-0.4-0.43
				c-0.12-0.16-0.27-0.29-0.43-0.38c-0.17-0.1-0.39-0.14-0.68-0.14c-0.29,0-0.54,0.06-0.73,0.19c-0.19,0.12-0.29,0.28-0.29,0.47
				c0,0.17,0.07,0.31,0.21,0.42c0.14,0.11,0.33,0.2,0.58,0.27c0.24,0.07,0.57,0.16,1,0.26c0.5,0.12,0.91,0.27,1.23,0.44
				c0.32,0.17,0.56,0.37,0.72,0.6C194.76,460.99,194.84,461.26,194.84,461.55z"/>
			<path id="XMLID_60_" class="st41" d="M196.49,456.33c-0.23,0-0.42-0.07-0.58-0.21c-0.16-0.14-0.24-0.33-0.24-0.59
				c0-0.23,0.08-0.42,0.25-0.57c0.16-0.15,0.36-0.22,0.57-0.22c0.21,0,0.4,0.07,0.56,0.2c0.16,0.13,0.24,0.33,0.24,0.59
				c0,0.25-0.08,0.44-0.24,0.58C196.9,456.26,196.71,456.33,196.49,456.33z M197.3,458v4.68c0,0.32-0.08,0.57-0.23,0.74
				c-0.15,0.17-0.35,0.25-0.59,0.25c-0.24,0-0.43-0.08-0.58-0.26c-0.15-0.17-0.22-0.41-0.22-0.73v-4.64c0-0.32,0.07-0.56,0.22-0.72
				c0.15-0.16,0.34-0.24,0.58-0.24c0.24,0,0.43,0.08,0.59,0.24C197.22,457.49,197.3,457.72,197.3,458z"/>
			<path id="XMLID_57_" class="st41" d="M204.39,458.27v4.71c0,0.54-0.06,1-0.17,1.39c-0.11,0.39-0.3,0.71-0.55,0.96
				c-0.25,0.25-0.58,0.44-0.99,0.56c-0.41,0.12-0.92,0.18-1.53,0.18c-0.56,0-1.06-0.08-1.5-0.23c-0.44-0.16-0.78-0.36-1.01-0.61
				c-0.24-0.25-0.36-0.5-0.36-0.76c0-0.2,0.07-0.36,0.2-0.48c0.13-0.13,0.3-0.19,0.49-0.19c0.24,0,0.45,0.1,0.62,0.31
				c0.09,0.11,0.18,0.21,0.27,0.32c0.09,0.11,0.2,0.2,0.31,0.28c0.11,0.08,0.25,0.13,0.41,0.17c0.16,0.04,0.34,0.06,0.55,0.06
				c0.42,0,0.75-0.06,0.98-0.18c0.23-0.12,0.39-0.28,0.49-0.49c0.09-0.21,0.15-0.43,0.16-0.67c0.02-0.24,0.03-0.62,0.04-1.15
				c-0.25,0.35-0.54,0.61-0.86,0.8c-0.33,0.18-0.72,0.27-1.17,0.27c-0.54,0-1.02-0.14-1.42-0.42c-0.41-0.28-0.72-0.66-0.93-1.16
				c-0.22-0.5-0.33-1.07-0.33-1.73c0-0.49,0.07-0.93,0.2-1.32c0.13-0.39,0.32-0.72,0.57-0.99c0.25-0.27,0.53-0.47,0.85-0.61
				c0.32-0.14,0.67-0.21,1.06-0.21c0.46,0,0.86,0.09,1.19,0.26c0.34,0.18,0.65,0.45,0.94,0.83v-0.22c0-0.28,0.07-0.5,0.21-0.65
				c0.14-0.15,0.32-0.23,0.53-0.23c0.31,0,0.52,0.1,0.62,0.31C204.34,457.59,204.39,457.89,204.39,458.27z M199.7,460.33
				c0,0.66,0.14,1.15,0.43,1.49c0.29,0.34,0.66,0.51,1.11,0.51c0.27,0,0.52-0.07,0.76-0.22c0.24-0.14,0.43-0.36,0.59-0.65
				c0.15-0.29,0.23-0.64,0.23-1.06c0-0.66-0.15-1.18-0.44-1.54c-0.29-0.37-0.67-0.55-1.15-0.55c-0.46,0-0.83,0.18-1.11,0.53
				C199.84,459.18,199.7,459.68,199.7,460.33z"/>
			<path id="XMLID_55_" class="st41" d="M206.97,457.98v0.2c0.28-0.38,0.6-0.65,0.93-0.83c0.34-0.18,0.73-0.26,1.17-0.26
				c0.43,0,0.81,0.09,1.15,0.28c0.34,0.19,0.59,0.45,0.75,0.79c0.11,0.2,0.18,0.41,0.21,0.64c0.03,0.23,0.05,0.52,0.05,0.88v3.02
				c0,0.32-0.07,0.57-0.22,0.74c-0.15,0.17-0.34,0.25-0.58,0.25c-0.24,0-0.44-0.08-0.59-0.26c-0.15-0.17-0.23-0.41-0.23-0.73v-2.7
				c0-0.53-0.07-0.94-0.22-1.23c-0.15-0.28-0.44-0.42-0.89-0.42c-0.29,0-0.55,0.09-0.79,0.26c-0.24,0.17-0.41,0.41-0.52,0.71
				c-0.08,0.24-0.12,0.69-0.12,1.35v2.03c0,0.33-0.08,0.57-0.23,0.74c-0.15,0.16-0.35,0.25-0.59,0.25c-0.23,0-0.43-0.08-0.58-0.26
				c-0.15-0.17-0.23-0.41-0.23-0.73V458c0-0.31,0.07-0.54,0.2-0.69c0.13-0.15,0.32-0.23,0.55-0.23c0.14,0,0.27,0.03,0.39,0.1
				c0.11,0.07,0.21,0.17,0.28,0.3C206.94,457.62,206.97,457.79,206.97,457.98z"/>
			<path id="XMLID_52_" class="st41" d="M216.83,460.78h-3.17c0,0.37,0.08,0.69,0.22,0.97c0.14,0.28,0.34,0.49,0.58,0.63
				c0.24,0.14,0.5,0.21,0.79,0.21c0.19,0,0.37-0.02,0.53-0.07c0.16-0.05,0.31-0.12,0.47-0.21c0.15-0.1,0.29-0.2,0.42-0.31
				c0.13-0.11,0.29-0.26,0.49-0.45c0.08-0.07,0.2-0.11,0.36-0.11c0.17,0,0.3,0.05,0.4,0.14c0.1,0.09,0.15,0.22,0.15,0.39
				c0,0.15-0.06,0.32-0.17,0.51c-0.12,0.2-0.29,0.38-0.52,0.56c-0.23,0.18-0.52,0.33-0.87,0.45c-0.35,0.12-0.75,0.18-1.21,0.18
				c-1.04,0-1.85-0.3-2.43-0.89c-0.58-0.59-0.87-1.4-0.87-2.42c0-0.48,0.07-0.92,0.21-1.33c0.14-0.41,0.35-0.76,0.62-1.05
				c0.27-0.29,0.61-0.52,1.01-0.67c0.4-0.16,0.84-0.23,1.33-0.23c0.63,0,1.18,0.13,1.63,0.4c0.45,0.27,0.79,0.61,1.02,1.04
				c0.23,0.42,0.34,0.86,0.34,1.29c0,0.41-0.12,0.67-0.35,0.79C217.58,460.72,217.25,460.78,216.83,460.78z M213.66,459.86h2.94
				c-0.04-0.55-0.19-0.97-0.45-1.24c-0.26-0.28-0.6-0.41-1.02-0.41c-0.4,0-0.74,0.14-0.99,0.42
				C213.87,458.9,213.72,459.31,213.66,459.86z"/>
			<path id="XMLID_49_" class="st41" d="M223.44,462.75v-0.16c-0.22,0.25-0.43,0.45-0.64,0.61c-0.21,0.16-0.44,0.28-0.69,0.36
				c-0.25,0.08-0.52,0.12-0.81,0.12c-0.39,0-0.75-0.08-1.08-0.25c-0.33-0.16-0.62-0.4-0.86-0.7c-0.24-0.3-0.42-0.66-0.55-1.07
				c-0.12-0.41-0.19-0.86-0.19-1.34c0-1.01,0.25-1.8,0.74-2.37c0.49-0.57,1.15-0.85,1.95-0.85c0.47,0,0.86,0.08,1.18,0.24
				c0.32,0.16,0.63,0.41,0.94,0.74v-2.39c0-0.33,0.07-0.58,0.2-0.75c0.13-0.17,0.32-0.26,0.57-0.26c0.25,0,0.43,0.08,0.57,0.23
				c0.13,0.16,0.2,0.39,0.2,0.69v7.15c0,0.31-0.07,0.54-0.21,0.69c-0.14,0.15-0.33,0.23-0.55,0.23c-0.22,0-0.4-0.08-0.55-0.24
				C223.51,463.27,223.44,463.04,223.44,462.75z M220.25,460.37c0,0.44,0.07,0.81,0.2,1.12c0.14,0.31,0.32,0.54,0.56,0.7
				c0.24,0.16,0.5,0.24,0.78,0.24c0.29,0,0.55-0.07,0.78-0.22c0.24-0.15,0.42-0.38,0.56-0.68c0.14-0.31,0.21-0.69,0.21-1.15
				c0-0.43-0.07-0.8-0.21-1.11c-0.14-0.31-0.33-0.55-0.57-0.71c-0.24-0.16-0.5-0.25-0.79-0.25c-0.3,0-0.56,0.08-0.8,0.25
				c-0.23,0.17-0.41,0.41-0.54,0.72C220.31,459.59,220.25,459.95,220.25,460.37z"/>
			<path id="XMLID_46_" class="st41" d="M230.06,455.6v2.47c0.3-0.32,0.62-0.56,0.93-0.73c0.32-0.17,0.71-0.25,1.18-0.25
				c0.54,0,1.01,0.13,1.42,0.38c0.4,0.26,0.72,0.63,0.94,1.11c0.22,0.48,0.34,1.06,0.34,1.72c0,0.49-0.06,0.94-0.19,1.35
				c-0.12,0.41-0.31,0.77-0.54,1.07c-0.24,0.3-0.53,0.53-0.86,0.7c-0.34,0.16-0.71,0.25-1.12,0.25c-0.25,0-0.48-0.03-0.7-0.09
				c-0.22-0.06-0.41-0.14-0.56-0.23c-0.15-0.1-0.29-0.2-0.39-0.3c-0.11-0.1-0.25-0.26-0.43-0.46v0.16c0,0.3-0.07,0.53-0.22,0.69
				c-0.15,0.16-0.33,0.23-0.56,0.23c-0.23,0-0.41-0.08-0.55-0.23c-0.14-0.16-0.2-0.39-0.2-0.69v-7.08c0-0.33,0.07-0.58,0.2-0.74
				c0.13-0.17,0.32-0.25,0.56-0.25c0.25,0,0.44,0.08,0.58,0.24C229.99,455.08,230.06,455.3,230.06,455.6z M230.14,460.41
				c0,0.64,0.15,1.14,0.44,1.49c0.29,0.35,0.68,0.52,1.16,0.52c0.41,0,0.76-0.18,1.05-0.53c0.29-0.35,0.44-0.86,0.44-1.52
				c0-0.43-0.06-0.8-0.18-1.1c-0.12-0.31-0.3-0.55-0.52-0.72c-0.23-0.17-0.49-0.25-0.79-0.25c-0.31,0-0.58,0.08-0.83,0.25
				c-0.24,0.17-0.43,0.41-0.57,0.73C230.21,459.6,230.14,459.98,230.14,460.41z"/>
			<path id="XMLID_44_" class="st41" d="M236.96,463.88l0.15-0.36l-1.99-5.02c-0.12-0.29-0.18-0.5-0.18-0.63
				c0-0.14,0.04-0.27,0.11-0.38c0.07-0.12,0.17-0.21,0.29-0.29c0.12-0.07,0.25-0.11,0.39-0.11c0.23,0,0.41,0.07,0.53,0.22
				c0.12,0.15,0.22,0.36,0.31,0.64l1.37,3.99l1.3-3.71c0.1-0.3,0.2-0.54,0.28-0.71c0.08-0.17,0.17-0.28,0.26-0.34
				c0.09-0.06,0.22-0.09,0.39-0.09c0.12,0,0.24,0.03,0.35,0.1c0.11,0.06,0.2,0.15,0.26,0.26c0.06,0.11,0.09,0.23,0.09,0.35
				c-0.02,0.07-0.04,0.18-0.08,0.32c-0.04,0.14-0.08,0.28-0.13,0.42l-2.11,5.53c-0.18,0.49-0.36,0.87-0.53,1.15
				c-0.17,0.28-0.4,0.49-0.69,0.64c-0.29,0.15-0.67,0.22-1.16,0.22c-0.47,0-0.83-0.05-1.07-0.15c-0.24-0.1-0.36-0.29-0.36-0.57
				c0-0.19,0.06-0.33,0.17-0.43c0.11-0.1,0.28-0.15,0.5-0.15c0.09,0,0.17,0.01,0.26,0.04c0.1,0.02,0.19,0.04,0.27,0.04
				c0.19,0,0.33-0.03,0.44-0.08c0.11-0.05,0.2-0.15,0.29-0.29C236.75,464.34,236.85,464.14,236.96,463.88z"/>
		</g>
		<g id="XMLID_21_">
			<path id="XMLID_42_" class="st41" d="M260.44,457.22h0.39v-0.49c0-0.51,0.06-0.91,0.19-1.21c0.13-0.3,0.35-0.52,0.65-0.65
				c0.31-0.14,0.73-0.2,1.26-0.2c0.95,0,1.42,0.23,1.42,0.7c0,0.15-0.05,0.28-0.15,0.38c-0.1,0.11-0.21,0.16-0.35,0.16
				c-0.06,0-0.17-0.01-0.33-0.04c-0.15-0.02-0.28-0.04-0.39-0.04c-0.29,0-0.48,0.09-0.57,0.26c-0.08,0.17-0.12,0.42-0.12,0.74v0.39
				h0.4c0.62,0,0.93,0.19,0.93,0.56c0,0.26-0.08,0.43-0.25,0.5c-0.16,0.07-0.39,0.11-0.68,0.11h-0.4v4.29
				c0,0.32-0.08,0.56-0.23,0.73c-0.15,0.17-0.35,0.25-0.59,0.25c-0.23,0-0.42-0.08-0.57-0.25c-0.15-0.17-0.23-0.41-0.23-0.73v-4.29
				h-0.45c-0.24,0-0.43-0.05-0.56-0.16c-0.13-0.11-0.2-0.25-0.2-0.42C259.63,457.42,259.9,457.22,260.44,457.22"/>
			<path id="XMLID_41_" class="st41" d="M265.75,461.33v1.36c0,0.33-0.08,0.57-0.23,0.74c-0.15,0.17-0.35,0.25-0.59,0.25
				c-0.24,0-0.43-0.08-0.58-0.25c-0.15-0.16-0.23-0.41-0.23-0.73v-4.51c0-0.73,0.26-1.09,0.79-1.09c0.27,0,0.46,0.08,0.58,0.26
				c0.12,0.17,0.18,0.42,0.2,0.75c0.19-0.33,0.39-0.58,0.59-0.75c0.21-0.17,0.48-0.26,0.82-0.26c0.34,0,0.67,0.08,0.99,0.26
				c0.32,0.17,0.48,0.4,0.48,0.68c0,0.2-0.07,0.36-0.2,0.49c-0.14,0.13-0.28,0.2-0.44,0.2c-0.06,0-0.21-0.04-0.43-0.11
				c-0.23-0.07-0.43-0.11-0.6-0.11c-0.24,0-0.43,0.06-0.58,0.19c-0.15,0.13-0.27,0.31-0.35,0.55c-0.08,0.25-0.14,0.54-0.17,0.88
				C265.76,460.43,265.75,460.85,265.75,461.33"/>
			<path id="XMLID_38_" class="st41" d="M273.2,460.77h-3.17c0.01,0.37,0.08,0.69,0.22,0.97c0.15,0.28,0.34,0.49,0.58,0.64
				c0.24,0.14,0.5,0.21,0.79,0.21c0.19,0,0.37-0.02,0.53-0.07c0.16-0.04,0.31-0.12,0.47-0.21c0.15-0.1,0.29-0.2,0.42-0.31
				c0.13-0.11,0.29-0.26,0.49-0.45c0.08-0.07,0.2-0.11,0.36-0.11c0.17,0,0.3,0.05,0.41,0.14c0.1,0.09,0.15,0.22,0.15,0.39
				c0,0.15-0.06,0.32-0.17,0.51c-0.12,0.2-0.29,0.39-0.52,0.57c-0.23,0.18-0.52,0.33-0.87,0.45c-0.35,0.12-0.75,0.18-1.21,0.18
				c-1.04,0-1.85-0.3-2.43-0.89c-0.58-0.59-0.87-1.4-0.87-2.42c0-0.48,0.07-0.92,0.22-1.33c0.14-0.41,0.35-0.76,0.62-1.05
				c0.27-0.29,0.61-0.52,1.01-0.67c0.4-0.16,0.84-0.23,1.33-0.23c0.63,0,1.18,0.13,1.63,0.4c0.45,0.26,0.8,0.61,1.02,1.03
				c0.23,0.42,0.34,0.85,0.34,1.3c0,0.41-0.12,0.67-0.35,0.79C273.95,460.71,273.62,460.77,273.2,460.77 M270.02,459.85h2.94
				c-0.04-0.55-0.19-0.97-0.45-1.24c-0.26-0.28-0.6-0.41-1.03-0.41c-0.4,0-0.74,0.14-0.99,0.42
				C270.24,458.9,270.08,459.31,270.02,459.85"/>
			<path id="XMLID_35_" class="st41" d="M279.94,460.77h-3.17c0,0.37,0.08,0.69,0.22,0.97c0.15,0.28,0.34,0.49,0.58,0.64
				c0.24,0.14,0.5,0.21,0.79,0.21c0.19,0,0.37-0.02,0.53-0.07c0.16-0.04,0.32-0.12,0.47-0.21c0.15-0.1,0.29-0.2,0.42-0.31
				c0.12-0.11,0.29-0.26,0.49-0.45c0.08-0.07,0.2-0.11,0.36-0.11c0.17,0,0.3,0.05,0.41,0.14c0.1,0.09,0.15,0.22,0.15,0.39
				c0,0.15-0.06,0.32-0.17,0.51c-0.11,0.2-0.28,0.39-0.52,0.57c-0.23,0.18-0.52,0.33-0.87,0.45c-0.35,0.12-0.75,0.18-1.21,0.18
				c-1.04,0-1.85-0.3-2.43-0.89c-0.58-0.59-0.87-1.4-0.87-2.42c0-0.48,0.07-0.92,0.22-1.33c0.14-0.41,0.35-0.76,0.62-1.05
				c0.27-0.29,0.61-0.52,1.01-0.67c0.4-0.16,0.84-0.23,1.33-0.23c0.63,0,1.17,0.13,1.63,0.4c0.45,0.26,0.79,0.61,1.01,1.03
				c0.22,0.42,0.34,0.85,0.34,1.3c0,0.41-0.12,0.67-0.35,0.79C280.69,460.71,280.36,460.77,279.94,460.77 M276.77,459.85h2.94
				c-0.04-0.55-0.19-0.97-0.45-1.24c-0.26-0.28-0.6-0.41-1.03-0.41c-0.4,0-0.73,0.14-1,0.42
				C276.98,458.9,276.82,459.31,276.77,459.85"/>
			<path id="XMLID_32_" class="st41" d="M283.49,457.99v0.19c0.3-0.38,0.62-0.65,0.95-0.83c0.32-0.18,0.7-0.27,1.11-0.27
				c0.5,0,0.96,0.13,1.38,0.39c0.42,0.26,0.75,0.63,0.99,1.13c0.24,0.5,0.37,1.08,0.37,1.76c0,0.5-0.07,0.96-0.21,1.38
				c-0.14,0.42-0.34,0.77-0.58,1.05c-0.25,0.28-0.53,0.5-0.87,0.65c-0.34,0.15-0.69,0.23-1.08,0.23c-0.46,0-0.85-0.09-1.17-0.28
				c-0.31-0.18-0.61-0.46-0.9-0.82v2.43c0,0.71-0.26,1.07-0.78,1.07c-0.31,0-0.51-0.09-0.61-0.27c-0.1-0.19-0.15-0.45-0.15-0.81v-7
				c0-0.31,0.07-0.54,0.2-0.69c0.13-0.15,0.32-0.23,0.55-0.23c0.23,0,0.42,0.08,0.56,0.23C283.42,457.47,283.49,457.7,283.49,457.99
				 M286.66,460.35c0-0.43-0.07-0.8-0.2-1.1c-0.13-0.31-0.31-0.54-0.54-0.7c-0.23-0.16-0.49-0.25-0.77-0.25
				c-0.45,0-0.82,0.18-1.13,0.53c-0.31,0.35-0.46,0.87-0.46,1.56c0,0.64,0.15,1.15,0.46,1.5c0.3,0.36,0.68,0.54,1.13,0.54
				c0.27,0,0.52-0.08,0.75-0.23c0.23-0.16,0.42-0.39,0.55-0.7C286.6,461.17,286.66,460.79,286.66,460.35"/>
			<path id="XMLID_29_" class="st41" d="M289.93,456.33c-0.23,0-0.42-0.07-0.58-0.21c-0.16-0.14-0.24-0.33-0.24-0.58
				c0-0.23,0.08-0.42,0.25-0.57c0.16-0.15,0.35-0.22,0.57-0.22c0.21,0,0.4,0.07,0.56,0.2c0.16,0.14,0.24,0.33,0.24,0.59
				c0,0.25-0.08,0.44-0.24,0.58C290.33,456.25,290.15,456.33,289.93,456.33 M290.73,458v4.69c0,0.32-0.08,0.57-0.23,0.73
				c-0.16,0.17-0.35,0.25-0.59,0.25c-0.24,0-0.43-0.08-0.58-0.25c-0.15-0.17-0.22-0.41-0.22-0.73v-4.64c0-0.32,0.08-0.56,0.22-0.72
				c0.15-0.16,0.34-0.24,0.58-0.24c0.24,0,0.43,0.08,0.59,0.24C290.65,457.49,290.73,457.71,290.73,458"/>
			<path id="XMLID_28_" class="st41" d="M295.95,462.93l-1.43-2.35l-0.88,0.83v1.29c0,0.31-0.08,0.55-0.25,0.72
				c-0.16,0.17-0.35,0.25-0.57,0.25c-0.25,0-0.45-0.08-0.59-0.25c-0.14-0.16-0.21-0.41-0.21-0.73v-6.91c0-0.36,0.07-0.63,0.21-0.82
				c0.14-0.19,0.34-0.28,0.6-0.28c0.25,0,0.45,0.09,0.59,0.26c0.15,0.17,0.22,0.42,0.22,0.75v3.93l1.82-1.91
				c0.23-0.24,0.4-0.4,0.52-0.49c0.12-0.09,0.26-0.13,0.43-0.13c0.2,0,0.37,0.06,0.51,0.19c0.13,0.13,0.2,0.29,0.2,0.48
				c0,0.24-0.22,0.56-0.66,0.95l-0.86,0.79l1.66,2.61c0.12,0.2,0.21,0.34,0.26,0.44c0.05,0.1,0.08,0.2,0.08,0.29
				c0,0.26-0.07,0.46-0.21,0.61c-0.14,0.15-0.33,0.22-0.55,0.22c-0.2,0-0.35-0.05-0.46-0.16
				C296.28,463.4,296.13,463.21,295.95,462.93"/>
			<path id="XMLID_27_" class="st41" d="M299.47,463.67c-0.25,0-0.46-0.08-0.63-0.24c-0.18-0.16-0.27-0.38-0.27-0.67
				c0-0.24,0.09-0.45,0.26-0.62c0.17-0.17,0.38-0.26,0.63-0.26c0.25,0,0.46,0.09,0.64,0.26c0.17,0.17,0.26,0.38,0.26,0.63
				c0,0.28-0.09,0.51-0.26,0.66C299.92,463.59,299.71,463.67,299.47,463.67"/>
			<path id="XMLID_26_" class="st41" d="M307.54,461.67c0,0.2-0.06,0.42-0.18,0.65c-0.12,0.23-0.31,0.45-0.55,0.66
				c-0.25,0.21-0.56,0.38-0.93,0.5c-0.38,0.13-0.8,0.19-1.27,0.19c-1,0-1.79-0.29-2.35-0.88c-0.56-0.58-0.84-1.37-0.84-2.35
				c0-0.67,0.13-1.25,0.39-1.77c0.26-0.51,0.63-0.9,1.11-1.18c0.49-0.28,1.07-0.42,1.75-0.42c0.42,0,0.8,0.06,1.16,0.18
				c0.35,0.12,0.65,0.28,0.89,0.47c0.24,0.2,0.43,0.4,0.56,0.62c0.13,0.22,0.19,0.42,0.19,0.62c0,0.19-0.07,0.36-0.21,0.49
				c-0.15,0.13-0.32,0.2-0.52,0.2c-0.14,0-0.25-0.04-0.34-0.1c-0.09-0.07-0.19-0.18-0.3-0.34c-0.2-0.3-0.4-0.53-0.62-0.68
				c-0.21-0.15-0.49-0.23-0.82-0.23c-0.48,0-0.86,0.19-1.16,0.56c-0.29,0.37-0.44,0.89-0.44,1.53c0,0.31,0.04,0.59,0.11,0.84
				c0.07,0.25,0.18,0.47,0.32,0.65c0.14,0.18,0.32,0.32,0.52,0.41c0.2,0.1,0.43,0.14,0.67,0.14c0.33,0,0.6-0.08,0.83-0.23
				c0.24-0.15,0.44-0.38,0.62-0.69c0.1-0.18,0.21-0.32,0.32-0.43c0.11-0.1,0.26-0.16,0.42-0.16c0.2,0,0.36,0.08,0.49,0.23
				C307.47,461.33,307.54,461.5,307.54,461.67"/>
			<path id="XMLID_23_" class="st41" d="M314.53,460.38c0,0.48-0.08,0.93-0.22,1.34c-0.15,0.41-0.37,0.76-0.66,1.05
				c-0.28,0.29-0.63,0.52-1.02,0.68c-0.4,0.15-0.84,0.23-1.34,0.23c-0.49,0-0.93-0.08-1.33-0.24c-0.39-0.16-0.73-0.38-1.02-0.68
				c-0.29-0.3-0.51-0.65-0.66-1.05c-0.14-0.4-0.22-0.85-0.22-1.33c0-0.49,0.08-0.94,0.22-1.35c0.15-0.41,0.37-0.76,0.65-1.05
				c0.28-0.29,0.62-0.51,1.02-0.67c0.4-0.15,0.84-0.23,1.33-0.23c0.49,0,0.94,0.08,1.34,0.24c0.4,0.16,0.74,0.38,1.03,0.68
				c0.29,0.3,0.5,0.64,0.65,1.04C314.46,459.45,314.53,459.89,314.53,460.38 M312.9,460.38c0-0.66-0.15-1.18-0.44-1.54
				c-0.29-0.37-0.68-0.56-1.17-0.56c-0.32,0-0.6,0.08-0.84,0.25c-0.24,0.16-0.43,0.41-0.56,0.73c-0.13,0.32-0.2,0.7-0.2,1.12
				c0,0.42,0.06,0.79,0.19,1.11c0.13,0.32,0.31,0.56,0.55,0.73c0.24,0.17,0.52,0.25,0.84,0.25c0.49,0,0.88-0.19,1.17-0.56
				C312.76,461.54,312.9,461.03,312.9,460.38"/>
			<path id="XMLID_22_" class="st41" d="M320.71,460.5v2.15c0,0.34-0.08,0.59-0.23,0.77c-0.16,0.17-0.36,0.26-0.61,0.26
				c-0.25,0-0.45-0.08-0.59-0.26c-0.15-0.17-0.23-0.42-0.23-0.77v-2.58c0-0.41-0.01-0.73-0.04-0.95c-0.03-0.22-0.1-0.41-0.23-0.55
				c-0.12-0.15-0.32-0.22-0.58-0.22c-0.53,0-0.88,0.18-1.05,0.55c-0.17,0.36-0.25,0.88-0.25,1.57v2.19c0,0.34-0.08,0.59-0.23,0.76
				c-0.16,0.17-0.36,0.26-0.6,0.26c-0.25,0-0.45-0.09-0.6-0.26c-0.16-0.17-0.24-0.43-0.24-0.76v-4.64c0-0.31,0.07-0.54,0.21-0.69
				c0.14-0.16,0.33-0.24,0.56-0.24c0.22,0,0.41,0.08,0.56,0.22c0.15,0.15,0.22,0.35,0.22,0.62v0.15c0.28-0.33,0.58-0.58,0.9-0.74
				c0.32-0.16,0.68-0.24,1.07-0.24c0.41,0,0.76,0.08,1.05,0.24c0.29,0.16,0.53,0.41,0.73,0.73c0.27-0.33,0.57-0.58,0.88-0.74
				c0.31-0.16,0.66-0.24,1.04-0.24c0.44,0,0.83,0.09,1.15,0.26c0.32,0.17,0.56,0.42,0.72,0.75c0.14,0.3,0.21,0.76,0.21,1.39v3.16
				c0,0.34-0.08,0.59-0.23,0.77c-0.15,0.17-0.36,0.26-0.61,0.26c-0.25,0-0.45-0.09-0.6-0.26c-0.16-0.17-0.24-0.43-0.24-0.76v-2.73
				c0-0.35-0.01-0.63-0.04-0.84c-0.03-0.21-0.11-0.39-0.24-0.53c-0.13-0.14-0.33-0.21-0.6-0.21c-0.21,0-0.42,0.07-0.61,0.19
				c-0.19,0.12-0.34,0.3-0.45,0.51C320.77,459.32,320.71,459.8,320.71,460.5"/>
		</g>
		<g id="XMLID_3_">
			<path id="XMLID_20_" class="st41" d="M245.27,459.98c0,0,0-0.01,0-0.01C245.27,459.98,245.27,459.98,245.27,459.98z"/>
			<path id="XMLID_19_" class="st41" d="M245.35,460.5C245.36,460.5,245.36,460.5,245.35,460.5c-0.03-0.15-0.05-0.29-0.07-0.44
				C245.3,460.21,245.32,460.36,245.35,460.5z"/>
			<path id="XMLID_17_" class="st41" d="M245.89,462.01c0-0.01-0.01-0.01-0.01-0.02C245.88,461.99,245.89,462,245.89,462.01z"/>
			<path id="XMLID_16_" class="st41" d="M245.84,461.91c-0.01-0.03-0.03-0.06-0.04-0.08C245.81,461.85,245.83,461.88,245.84,461.91z
				"/>
			<path id="XMLID_15_" class="st41" d="M245.5,461.08c0.08,0.25,0.17,0.49,0.29,0.72C245.68,461.57,245.58,461.33,245.5,461.08
				C245.51,461.08,245.51,461.08,245.5,461.08z"/>
			<path id="XMLID_14_" class="st41" d="M251.55,453.78c0.31,0,0.54,0.02,0.81,0.07l0.08-0.48c0,0-0.73-0.22-1.69-0.15l-0.08-0.26
				c0.3-0.06,0.52-0.33,0.52-0.65c0-0.36-0.3-0.66-0.66-0.66s-0.66,0.29-0.66,0.66c0,0.32,0.22,0.58,0.52,0.65l0.08,0.29
				c-1.02,0.14-1.83,0.54-1.83,0.54l0.14,0.44c0.62-0.21,1.15-0.33,1.64-0.38C250.9,453.8,251.25,453.78,251.55,453.78z"/>
			<path id="XMLID_13_" class="st41" d="M245.88,456.19L245.88,456.19c0.03-0.04,0.05-0.06,0.07-0.09l-0.2-0.14l-0.3-0.22
				c-0.02,0.02-0.5,0.47-0.88,1.28c-0.02-0.03-0.03-0.05-0.06-0.07c-0.11-0.12-0.27-0.19-0.47-0.18c0,0-0.01,0-0.01,0
				c-0.12,0-0.21-0.04-0.27-0.09c0.06-0.07,0.09-0.16,0.09-0.26c0-0.23-0.19-0.42-0.42-0.42c-0.23,0-0.42,0.19-0.42,0.42
				c0,0.23,0.19,0.42,0.42,0.42c0.04,0,0.07-0.01,0.1-0.01c0.1,0.11,0.27,0.21,0.5,0.21c0.12,0,0.21,0.03,0.27,0.1
				c0.07,0.08,0.09,0.18,0.1,0.27c0,0,0,0,0,0c-0.27,0.74-0.19,1.67-0.19,1.67l0.66,0.03c0.01-0.34,0.06-0.93,0.23-1.39
				C245.45,456.78,245.86,456.21,245.88,456.19z"/>
			<path id="XMLID_11_" class="st41" d="M257.29,454.33c-0.23,0-0.42,0.19-0.42,0.42c0,0.04,0,0.07,0.01,0.1
				c-0.11,0.1-0.21,0.27-0.21,0.51c0,0.12-0.03,0.21-0.1,0.27c-0.05,0.05-0.12,0.07-0.18,0.09c-0.49-0.69-1.1-1.11-1.1-1.11
				l-0.47,0.51c0.36,0.33,0.73,0.73,1.08,1.24c0.25,0.35,0.5,0.81,0.71,1.26l0.64-0.3c0,0-0.29-0.72-0.7-1.37
				c0.07-0.03,0.14-0.06,0.21-0.12c0.13-0.11,0.19-0.27,0.18-0.47c0-0.13,0.04-0.22,0.09-0.28c0.07,0.05,0.16,0.09,0.26,0.09
				c0.23,0,0.42-0.19,0.42-0.42C257.71,454.51,257.53,454.33,257.29,454.33z"/>
			<path id="XMLID_9_" class="st41" d="M255.63,460.08c-0.88,0.43-2.33,1-4.24,1.26c-0.75,0.1-1.47,0.14-2.14,0.14
				c-0.87,0-1.64-0.06-2.23-0.14c-0.67-0.08-1.2-0.19-1.52-0.26c0.08,0.25,0.17,0.49,0.28,0.72c0,0.01,0,0.01,0.01,0.02
				c0.01,0.03,0.03,0.06,0.04,0.08c0.01,0.03,0.03,0.05,0.04,0.08c0,0.01,0.01,0.01,0.01,0.02c0.19,0.36,0.42,0.68,0.68,0.97
				c0.9,0.98,1.82,1.14,1.83,1.14l0.01,0l0.01,0c0.01,0,0.82,0.27,2.06,0.27c1.22,0,2.41-0.25,3.55-0.73
				c0.84-0.43,1.64-1.09,2.03-1.67c0.31-0.45,0.53-0.93,0.66-1.43c0.07-0.27,0.12-0.69,0.09-1.14
				C256.56,459.58,256.16,459.82,255.63,460.08z"/>
			<path id="XMLID_5_" class="st41" d="M246.16,456.39c-0.03,0.04-0.41,0.58-0.71,1.41c-0.23,0.62-0.22,1.53-0.22,1.54v0
				c0,0.21,0.01,0.42,0.04,0.63c0,0,0,0.01,0,0.01c0,0.03,0.01,0.05,0.01,0.08c0.02,0.15,0.04,0.29,0.07,0.44
				c0.44,0.11,3.05,0.72,5.97,0.31c1.83-0.26,3.22-0.8,4.06-1.2c0.7-0.34,1.15-0.65,1.32-0.77c-0.17-0.64-0.65-1.65-1.09-2.28
				c-1.25-1.79-2.6-2.25-3.3-2.36c-0.26-0.04-0.48-0.07-0.78-0.07c-0.28,0-0.63,0.02-1.09,0.07c-0.46,0.05-0.98,0.17-1.58,0.37
				c-0.84,0.28-1.6,0.72-2.2,1.28l-0.02,0.02C246.56,455.95,246.37,456.12,246.16,456.39z M253.83,455.98c0.6,0,1.09,0.49,1.09,1.09
				c0,0.6-0.49,1.09-1.09,1.09c-0.6,0-1.09-0.49-1.09-1.09C252.74,456.47,253.23,455.98,253.83,455.98z M248.68,455.93
				c0.97,0,1.76,0.79,1.76,1.76c0,0.97-0.79,1.76-1.76,1.76c-0.97,0-1.76-0.79-1.76-1.76C246.92,456.72,247.71,455.93,248.68,455.93
				z"/>
		</g>
	</g>
</g>
</svg>
