# 3ds Max Wavefront OBJ Exporter v0.97b - (c)2007 guruware
# File Created: 22.05.2020 01:42:08

mtllib SVRLD.mtl

#
# object Rectangle003
#

v  -2.3802 60.0000 11.3482
v  -7.7237 60.0000 11.3482
v  -7.7237 0.0000 11.3482
v  -2.3802 0.0000 11.3482
v  -2.3802 60.0000 5.1470
v  -2.3802 0.0000 5.1470
v  17.6326 60.0000 5.1470
v  17.6326 0.0000 5.1470
v  17.6326 60.0000 0.0548
v  17.6326 0.0000 0.0548
v  15.1758 60.0000 0.0548
v  15.1758 0.0000 0.0548
v  15.1758 60.0000 -5.1214
v  15.1758 0.0000 -5.1214
v  -0.0589 60.0000 -5.1214
v  -0.0589 0.0000 -5.1214
v  -0.0589 60.0000 -13.4366
v  -0.0589 0.0000 -13.4366
v  -5.0021 60.0000 -13.4366
v  -5.0021 0.0000 -13.4366
v  -5.0021 60.0000 -7.2489
v  -5.0021 0.0000 -7.2489
v  -24.8439 60.0000 -7.2489
v  -24.8439 0.0000 -7.2489
v  -24.8439 60.0000 -1.9032
v  -24.8439 0.0000 -1.9032
v  -22.3336 60.0000 -1.9032
v  -22.3336 0.0000 -1.9032
v  -22.3336 60.0000 3.0001
v  -22.3336 0.0000 3.0001
v  -7.7237 60.0000 3.0001
v  -7.7237 0.0000 3.0001
v  -0.0669 5.0000 -13.4391
v  15.2009 5.0000 -13.4391
v  15.2009 0.0000 -13.4391
v  -0.0669 0.0000 -13.4391
v  -0.0669 5.0000 -5.1190
v  -0.0669 0.0000 -5.1190
v  15.2009 5.0000 -5.1190
v  15.2009 0.0000 -5.1190
v  -0.0378 2.0000 -33.2311
v  11.7638 2.0000 -33.2311
v  11.7638 0.0000 -33.2311
v  -0.0378 0.0000 -33.2311
v  -0.0378 2.0000 -13.4024
v  -0.0378 0.0000 -13.4024
v  11.7638 2.0000 -13.4024
v  11.7638 0.0000 -13.4024
v  15.1756 2.0000 -13.4435
v  29.5791 2.0000 -13.4435
v  29.5791 0.0000 -13.4435
v  15.1756 0.0000 -13.4435
v  15.1756 2.0000 0.0546
v  15.1756 0.0000 0.0546
v  29.5791 2.0000 0.0546
v  29.5791 0.0000 0.0546
v  -13.1457 -0.0000 6.3133
v  -13.1457 -0.0000 6.1406
v  -13.0372 -0.0000 6.1406
v  -13.0372 -0.0000 6.3133
v  -13.1457 1.8450 6.3133
v  -13.0372 1.8450 6.3133
v  -13.0372 1.8450 6.1406
v  -13.1457 1.8450 6.1406
v  -10.4665 -0.0000 6.3133
v  -10.4665 -0.0000 6.1406
v  -10.3580 -0.0000 6.1406
v  -10.3580 -0.0000 6.3133
v  -10.4665 1.8450 6.3133
v  -10.3580 1.8450 6.3133
v  -10.3580 1.8450 6.1406
v  -10.4665 1.8450 6.1406
v  2.8688 -0.0000 8.4611
v  2.8688 -0.0000 8.2884
v  2.9773 -0.0000 8.2884
v  2.9773 -0.0000 8.4611
v  2.8688 1.8450 8.4611
v  2.9773 1.8450 8.4611
v  2.9773 1.8450 8.2884
v  2.8688 1.8450 8.2884
v  0.1897 -0.0000 8.4611
v  0.1897 -0.0000 8.2884
v  0.2982 -0.0000 8.2884
v  0.2982 -0.0000 8.4611
v  0.1897 1.8450 8.4611
v  0.2982 1.8450 8.4611
v  0.2982 1.8450 8.2884
v  0.1897 1.8450 8.2884
v  -13.0361 1.8434 2.9950
v  -10.4661 1.8434 2.9950
v  -10.4661 1.5434 2.9950
v  -13.0361 1.5434 2.9950
v  -13.0361 1.8434 6.8208
v  -13.0361 1.5434 6.8208
v  -10.4661 1.8434 6.8208
v  -10.4661 1.5434 6.8208
v  0.2993 1.8434 5.1427
v  2.8692 1.8434 5.1427
v  2.8692 1.5434 5.1427
v  0.2993 1.5434 5.1427
v  0.2993 1.8434 8.9685
v  0.2993 1.5434 8.9685
v  2.8692 1.8434 8.9685
v  2.8692 1.5434 8.9685
# 104 vertices

vn 0.0000 0.0000 1.0000
vn 1.0000 0.0000 -0.0000
vn 0.0000 0.0000 -1.0000
vn -1.0000 0.0000 -0.0000
vn -0.0000 0.0000 1.0000
vn 0.0000 -1.0000 -0.0000
vn 0.0000 1.0000 -0.0000
# 7 vertex normals

vt -4.7902 -22.8384 60.0000
vt -15.5441 -22.8384 60.0000
vt -15.5441 -22.8384 0.0000
vt -4.7902 -22.8384 0.0000
vt -4.7902 -10.3584 60.0000
vt -4.7902 -10.3584 0.0000
vt 35.4859 -10.3584 60.0000
vt 35.4859 -10.3584 0.0000
vt 35.4859 -0.1102 60.0000
vt 35.4859 -0.1102 0.0000
vt 30.5416 -0.1102 60.0000
vt 30.5416 -0.1102 0.0000
vt 30.5416 10.3070 60.0000
vt 30.5416 10.3070 0.0000
vt -0.1186 10.3070 60.0000
vt -0.1186 10.3070 0.0000
vt -0.1186 27.0415 60.0000
vt -0.1186 27.0415 0.0000
vt -10.0667 27.0415 60.0000
vt -10.0667 27.0415 0.0000
vt -10.0667 14.5887 60.0000
vt -10.0667 14.5887 0.0000
vt -49.9989 14.5887 60.0000
vt -49.9989 14.5887 0.0000
vt -49.9989 3.8302 60.0000
vt -49.9989 3.8302 0.0000
vt -44.9468 3.8302 60.0000
vt -44.9468 3.8302 0.0000
vt -44.9468 -6.0378 60.0000
vt -44.9468 -6.0378 0.0000
vt -15.5441 -6.0378 60.0000
vt -15.5441 -6.0378 0.0000
vt -0.1346 27.0465 5.0000
vt 30.5921 27.0465 5.0000
vt 30.5921 27.0465 0.0000
vt -0.1346 27.0465 0.0000
vt -0.1346 10.3021 5.0000
vt -0.1346 10.3021 0.0000
vt 30.5921 10.3021 5.0000
vt 30.5921 10.3021 0.0000
vt -0.0761 66.8783 2.0000
vt 23.6749 66.8783 2.0000
vt 23.6749 66.8783 0.0000
vt -0.0761 66.8783 0.0000
vt -0.0761 26.9726 2.0000
vt -0.0761 26.9726 0.0000
vt 23.6749 26.9726 2.0000
vt 23.6749 26.9726 0.0000
vt 30.5412 27.0554 2.0000
vt 59.5286 27.0554 2.0000
vt 59.5286 27.0554 0.0000
vt 30.5412 27.0554 0.0000
vt 30.5412 -0.1098 2.0000
vt 30.5412 -0.1098 0.0000
vt 59.5286 -0.1098 2.0000
vt 59.5286 -0.1098 0.0000
vt 1.0000 0.0000 0.0000
vt 1.0000 1.0000 0.0000
vt 0.0000 1.0000 0.0000
vt 0.0000 0.0000 0.0000
vt -1.2850 1.9129 0.3000
vt 1.2850 1.9129 0.3000
vt 1.2850 1.9129 0.0000
vt -1.2850 1.9129 0.0000
vt -1.2850 -1.9129 0.3000
vt -1.2850 -1.9129 0.0000
vt 1.2850 -1.9129 0.3000
vt 1.2850 -1.9129 0.0000
# 68 texture coords

o Rectangle003
g Rectangle003
usemtl wire_087225143
s 1
f 1/1/1 2/2/1 3/3/1 
f 3/3/1 4/4/1 1/1/1 
s 4
f 5/5/2 1/1/2 4/4/2 
f 4/4/2 6/6/2 5/5/2 
s 2
f 7/7/1 5/5/1 6/6/1 
f 6/6/1 8/8/1 7/7/1 
s 4
f 9/9/2 7/7/2 8/8/2 
f 8/8/2 10/10/2 9/9/2 
s 2
f 11/11/3 9/9/3 10/10/3 
f 10/10/3 12/12/3 11/11/3 
s 4
f 13/13/2 11/11/2 12/12/2 
f 12/12/2 14/14/2 13/13/2 
s 2
f 15/15/3 13/13/3 14/14/3 
f 14/14/3 16/16/3 15/15/3 
s 4
f 17/17/2 15/15/2 16/16/2 
f 16/16/2 18/18/2 17/17/2 
s 2
f 19/19/3 17/17/3 18/18/3 
f 18/18/3 20/20/3 19/19/3 
s 4
f 21/21/4 19/19/4 20/20/4 
f 20/20/4 22/22/4 21/21/4 
s 2
f 23/23/3 21/21/3 22/22/3 
f 22/22/3 24/24/3 23/23/3 
s 4
f 25/25/4 23/23/4 24/24/4 
f 24/24/4 26/26/4 25/25/4 
s 2
f 27/27/5 25/25/5 26/26/5 
f 26/26/5 28/28/5 27/27/5 
s 4
f 29/29/4 27/27/4 28/28/4 
f 28/28/4 30/30/4 29/29/4 
s 2
f 31/31/1 29/29/1 30/30/1 
f 30/30/1 32/32/1 31/31/1 
s 4
f 2/2/4 31/31/4 32/32/4 
f 32/32/4 3/3/4 2/2/4 
s 16
f 6/6/6 4/4/6 3/3/6 
f 6/6/6 3/3/6 32/32/6 
f 32/32/6 30/30/6 28/28/6 
f 28/28/6 26/26/6 24/24/6 
f 28/28/6 24/24/6 22/22/6 
f 32/32/6 28/28/6 22/22/6 
f 22/22/6 20/20/6 18/18/6 
f 22/22/6 18/18/6 16/16/6 
f 32/32/6 22/22/6 16/16/6 
f 6/6/6 32/32/6 16/16/6 
f 16/16/6 14/14/6 12/12/6 
f 6/6/6 16/16/6 12/12/6 
f 8/8/6 6/6/6 12/12/6 
f 8/8/6 12/12/6 10/10/6 
f 7/7/7 9/9/7 11/11/7 
f 11/11/7 13/13/7 15/15/7 
f 17/17/7 19/19/7 21/21/7 
f 15/15/7 17/17/7 21/21/7 
f 23/23/7 25/25/7 27/27/7 
f 21/21/7 23/23/7 27/27/7 
f 27/27/7 29/29/7 31/31/7 
f 21/21/7 27/27/7 31/31/7 
f 15/15/7 21/21/7 31/31/7 
f 2/2/7 1/1/7 5/5/7 
f 31/31/7 2/2/7 5/5/7 
f 15/15/7 31/31/7 5/5/7 
f 11/11/7 15/15/7 5/5/7 
f 7/7/7 11/11/7 5/5/7 
s 1
f 33/33/3 34/34/3 35/35/3 
f 35/35/3 36/36/3 33/33/3 
s 4
f 37/37/4 33/33/4 36/36/4 
f 36/36/4 38/38/4 37/37/4 
s 2
f 39/39/1 37/37/1 38/38/1 
f 38/38/1 40/40/1 39/39/1 
s 4
f 34/34/2 39/39/2 40/40/2 
f 40/40/2 35/35/2 34/34/2 
s 16
f 38/38/6 36/36/6 35/35/6 
f 35/35/6 40/40/6 38/38/6 
f 34/34/7 33/33/7 37/37/7 
f 37/37/7 39/39/7 34/34/7 
s 1
f 41/41/3 42/42/3 43/43/3 
f 43/43/3 44/44/3 41/41/3 
s 4
f 45/45/4 41/41/4 44/44/4 
f 44/44/4 46/46/4 45/45/4 
s 2
f 47/47/1 45/45/1 46/46/1 
f 46/46/1 48/48/1 47/47/1 
s 4
f 42/42/2 47/47/2 48/48/2 
f 48/48/2 43/43/2 42/42/2 
s 16
f 46/46/6 44/44/6 43/43/6 
f 43/43/6 48/48/6 46/46/6 
f 42/42/7 41/41/7 45/45/7 
f 45/45/7 47/47/7 42/42/7 
s 1
f 49/49/3 50/50/3 51/51/3 
f 51/51/3 52/52/3 49/49/3 
s 4
f 53/53/4 49/49/4 52/52/4 
f 52/52/4 54/54/4 53/53/4 
s 2
f 55/55/1 53/53/1 54/54/1 
f 54/54/1 56/56/1 55/55/1 
s 4
f 50/50/2 55/55/2 56/56/2 
f 56/56/2 51/51/2 50/50/2 
s 16
f 54/54/6 52/52/6 51/51/6 
f 51/51/6 56/56/6 54/54/6 
f 50/50/7 49/49/7 53/53/7 
f 53/53/7 55/55/7 50/50/7 
s 2
f 57/57/6 58/58/6 59/59/6 
f 59/59/6 60/60/6 57/57/6 
s 4
f 61/60/7 62/57/7 63/58/7 
f 63/58/7 64/59/7 61/60/7 
s 8
f 57/60/1 60/57/1 62/58/1 
f 62/58/1 61/59/1 57/60/1 
s 16
f 60/60/2 59/57/2 63/58/2 
f 63/58/2 62/59/2 60/60/2 
s 32
f 59/60/3 58/57/3 64/58/3 
f 64/58/3 63/59/3 59/60/3 
s 64
f 58/60/4 57/57/4 61/58/4 
f 61/58/4 64/59/4 58/60/4 
s 2
f 65/57/6 66/58/6 67/59/6 
f 67/59/6 68/60/6 65/57/6 
s 4
f 69/60/7 70/57/7 71/58/7 
f 71/58/7 72/59/7 69/60/7 
s 8
f 65/60/1 68/57/1 70/58/1 
f 70/58/1 69/59/1 65/60/1 
s 16
f 68/60/2 67/57/2 71/58/2 
f 71/58/2 70/59/2 68/60/2 
s 32
f 67/60/3 66/57/3 72/58/3 
f 72/58/3 71/59/3 67/60/3 
s 64
f 66/60/4 65/57/4 69/58/4 
f 69/58/4 72/59/4 66/60/4 
s 2
f 73/57/6 74/58/6 75/59/6 
f 75/59/6 76/60/6 73/57/6 
s 4
f 77/60/7 78/57/7 79/58/7 
f 79/58/7 80/59/7 77/60/7 
s 8
f 73/60/1 76/57/1 78/58/1 
f 78/58/1 77/59/1 73/60/1 
s 16
f 76/60/2 75/57/2 79/58/2 
f 79/58/2 78/59/2 76/60/2 
s 32
f 75/60/3 74/57/3 80/58/3 
f 80/58/3 79/59/3 75/60/3 
s 64
f 74/60/4 73/57/4 77/58/4 
f 77/58/4 80/59/4 74/60/4 
s 2
f 81/57/6 82/58/6 83/59/6 
f 83/59/6 84/60/6 81/57/6 
s 4
f 85/60/7 86/57/7 87/58/7 
f 87/58/7 88/59/7 85/60/7 
s 8
f 81/60/1 84/57/1 86/58/1 
f 86/58/1 85/59/1 81/60/1 
s 16
f 84/60/2 83/57/2 87/58/2 
f 87/58/2 86/59/2 84/60/2 
s 32
f 83/60/3 82/57/3 88/58/3 
f 88/58/3 87/59/3 83/60/3 
s 64
f 82/60/4 81/57/4 85/58/4 
f 85/58/4 88/59/4 82/60/4 
s 1
f 89/61/3 90/62/3 91/63/3 
f 91/63/3 92/64/3 89/61/3 
s 4
f 93/65/4 89/61/4 92/64/4 
f 92/64/4 94/66/4 93/65/4 
s 2
f 95/67/1 93/65/1 94/66/1 
f 94/66/1 96/68/1 95/67/1 
s 4
f 90/62/2 95/67/2 96/68/2 
f 96/68/2 91/63/2 90/62/2 
s 16
f 94/66/6 92/64/6 91/63/6 
f 91/63/6 96/68/6 94/66/6 
f 90/62/7 89/61/7 93/65/7 
f 93/65/7 95/67/7 90/62/7 
s 1
f 97/61/3 98/62/3 99/63/3 
f 99/63/3 100/64/3 97/61/3 
s 4
f 101/65/4 97/61/4 100/64/4 
f 100/64/4 102/66/4 101/65/4 
s 2
f 103/67/1 101/65/1 102/66/1 
f 102/66/1 104/68/1 103/67/1 
s 4
f 98/62/2 103/67/2 104/68/2 
f 104/68/2 99/63/2 98/62/2 
s 16
f 102/66/6 100/64/6 99/63/6 
f 99/63/6 104/68/6 102/66/6 
f 98/62/7 97/61/7 101/65/7 
f 101/65/7 103/67/7 98/62/7 
# 168 faces

